<?xml version="1.0" standalone="no"?>
<!DOCTYPE svg PUBLIC "-//W3C//DTD SVG 20010904//EN"
 "http://www.w3.org/TR/2001/REC-SVG-20010904/DTD/svg10.dtd">
<svg version="1.0" xmlns="http://www.w3.org/2000/svg"
 width="350.000000pt" height="100.000000pt" viewBox="0 0 350.000000 100.000000"
 preserveAspectRatio="xMidYMid meet">

<g transform="translate(0.000000,100.000000) scale(0.100000,-0.100000)"
fill="#000000" stroke="none">
<path d="M122 944 c-12 -8 -22 -21 -22 -27 0 -9 2 -9 8 0 4 6 21 19 37 27 17
9 23 16 15 16 -9 0 -26 -7 -38 -16z"/>
<path d="M248 940 c37 -23 44 -45 10 -34 -41 14 -82 6 -106 -21 -12 -15 -20
-31 -17 -36 4 -5 -1 -9 -10 -9 -9 0 -19 9 -22 20 -5 19 -23 28 -23 12 0 -18
50 -54 91 -66 52 -15 88 -61 118 -146 l19 -55 -51 -47 c-29 -27 -64 -55 -78
-64 -21 -14 -29 -30 -39 -83 -25 -139 -28 -123 38 -284 20 -48 55 -74 122 -88
43 -9 59 -8 96 6 24 9 42 21 39 25 -3 5 -21 0 -40 -11 -38 -23 -94 -20 -148 8
-51 26 -88 109 -92 208 -1 39 4 57 21 80 20 27 33 33 101 44 43 7 94 19 115
28 20 8 41 12 48 8 6 -4 16 -2 23 3 21 17 75 24 96 12 19 -10 20 -18 16 -120
-4 -104 -6 -112 -38 -163 -19 -30 -47 -63 -62 -75 -15 -12 -24 -22 -19 -22 37
1 158 175 168 241 9 62 -9 146 -44 203 l-31 48 37 45 c39 47 128 122 147 124
7 0 30 0 52 0 22 -1 47 3 55 9 12 8 12 10 1 10 -9 0 -11 7 -8 21 3 11 3 27 0
35 -8 20 -56 44 -90 44 -27 1 -27 1 -9 15 11 8 16 15 10 15 -15 -1 -40 -23
-52 -47 -9 -17 -9 -28 0 -49 11 -24 10 -28 -17 -47 -17 -11 -61 -51 -98 -89
l-68 -70 -81 14 -81 13 -12 42 c-7 23 -28 71 -48 106 l-35 63 24 23 c13 13 24
33 24 46 0 23 -51 75 -73 75 -7 0 3 -9 21 -20z"/>
<path d="M773 883 c9 -2 25 -2 35 0 9 3 1 5 -18 5 -19 0 -27 -2 -17 -5z"/>
<path d="M848 864 c38 -26 45 -50 26 -86 l-17 -33 22 19 c11 11 21 30 21 43 0
25 -40 73 -62 73 -7 0 -2 -7 10 -16z"/>
<path d="M2260 558 c-5 -13 -20 -50 -33 -83 -13 -33 -27 -60 -33 -60 -5 0 -20
35 -34 79 l-24 78 -48 -4 c-27 -3 -50 -7 -52 -9 -2 -2 -6 -73 -10 -156 l-6
-153 44 0 44 0 7 71 c4 38 9 68 12 66 2 -3 1 -37 -3 -76 l-7 -71 -53 0 -53 0
-4 48 -3 47 -2 -57 c-3 -82 1 -88 63 -88 35 0 57 5 65 15 9 11 22 14 39 10 16
-3 34 0 46 9 28 21 35 20 35 -9 0 -33 28 -46 81 -37 41 7 44 10 50 47 4 22 9
105 12 185 4 114 3 129 -4 70 -5 -41 -11 -114 -15 -162 l-6 -88 -41 2 -42 1
36 4 37 4 6 62 c3 34 8 110 12 170 l6 107 -56 0 c-49 0 -58 -3 -66 -22z m12
-276 c2 -34 0 -62 -4 -62 -5 0 -7 42 -6 93 1 94 5 82 10 -31z m-80 -9 c10 3
18 1 18 -4 0 -5 -9 -9 -20 -9 -22 0 -34 22 -43 80 -4 21 1 13 10 -18 13 -43
20 -53 35 -49z"/>
<path d="M790 497 c0 -41 -3 -115 -6 -165 l-7 -92 51 0 51 0 4 68 3 67 2 -72
2 -73 -60 0 -59 0 -4 58 c-3 57 -3 57 -5 -13 -2 -83 6 -95 64 -95 68 0 74 5
74 64 0 61 14 84 55 88 27 3 30 6 32 43 1 22 -1 32 -4 23 -3 -14 -14 -18 -51
-16 l-47 1 43 4 c39 4 42 6 42 33 0 27 -3 29 -42 32 -26 2 -43 8 -45 18 -3 10
-2 11 4 4 4 -7 33 -13 63 -15 l55 -4 1 45 c1 25 0 33 -3 18 -4 -27 -6 -28 -61
-26 l-57 2 53 3 c52 4 52 4 52 39 l0 34 -100 0 -100 0 0 -73z"/>
<path d="M772 500 c0 -19 2 -27 5 -17 2 9 2 25 0 35 -3 9 -5 1 -5 -18z"/>
<path d="M2013 425 c0 -44 2 -61 4 -37 2 23 2 59 0 80 -2 20 -4 1 -4 -43z"/>
<path d="M773 410 c0 -30 2 -43 4 -27 2 15 2 39 0 55 -2 15 -4 2 -4 -28z"/>
<path d="M1226 412 c-2 -4 -8 -47 -12 -95 l-7 -87 -34 0 c-19 0 -32 4 -28 9 3
6 -8 8 -27 4 -38 -6 -63 15 -78 63 -8 27 -8 26 -9 -13 -1 -33 5 -50 27 -74 25
-28 33 -31 87 -31 184 0 291 4 306 13 11 5 20 6 24 0 7 -13 197 -12 213 1 7 6
12 34 12 69 0 33 3 59 6 59 17 0 33 -39 34 -80 0 -52 13 -70 50 -70 35 0 50
17 50 59 0 20 13 57 30 88 31 54 38 83 20 83 -21 0 -60 -87 -60 -133 l0 -47
-40 0 -40 0 0 50 c0 55 -31 130 -54 130 -11 0 -13 -17 -8 -85 l5 -85 -47 0
-48 0 7 73 c6 72 -3 106 -24 93 -7 -4 -11 -39 -11 -87 l0 -79 -40 0 -40 0 -2
78 c-1 46 -3 60 -5 35 -4 -46 -19 -57 -26 -20 -2 12 -5 -4 -6 -35 l-1 -58 -46
0 -46 0 7 73 c6 72 -3 106 -24 93 -7 -4 -11 -39 -11 -87 l0 -79 -40 0 -40 0 0
90 c0 79 -8 107 -24 82z"/>
<path d="M1117 403 c-4 -3 -7 -28 -7 -55 0 -35 4 -48 12 -46 14 5 40 86 32 99
-6 11 -28 12 -37 2z"/>
<path d="M2816 394 c-3 -9 -6 -47 -6 -85 l0 -69 -36 0 -37 0 6 58 c6 59 1 102
-13 102 -4 0 -11 -36 -14 -80 l-7 -80 -40 0 c-36 0 -40 -2 -37 -22 3 -23 5
-23 137 -20 107 2 138 5 152 18 17 15 20 15 49 -10 59 -49 150 -25 150 39 0
14 7 28 15 31 8 4 15 12 15 20 0 10 6 11 30 2 32 -11 60 -5 60 12 0 5 -12 10
-26 10 -16 0 -37 12 -54 30 -28 30 -29 30 -32 8 -2 -13 -10 -24 -18 -25 -60
-7 -90 -15 -90 -23 0 -15 38 -22 60 -10 18 10 20 8 20 -24 0 -37 -12 -46 -64
-46 -42 0 -72 29 -87 83 -18 62 -29 67 -29 15 0 -67 -7 -78 -46 -78 l-34 0 0
80 c0 75 -10 101 -24 64z"/>
<path d="M2506 384 c-21 -21 -20 -24 9 -24 15 0 25 6 25 14 0 23 -17 28 -34
10z"/>
<path d="M3026 384 c-21 -21 -20 -24 9 -24 15 0 25 6 25 14 0 23 -17 28 -34
10z"/>
<path d="M3250 390 c-48 -7 -41 -14 23 -25 33 -5 37 -4 37 15 0 11 -3 19 -7
18 -5 0 -28 -4 -53 -8z"/>
<path d="M2634 376 c-3 -9 -10 -14 -14 -11 -4 3 -10 -4 -13 -15 -4 -14 -14
-20 -34 -20 -37 0 -73 -10 -73 -20 0 -15 39 -21 60 -10 18 10 20 8 20 -24 0
-37 -12 -46 -63 -46 -42 1 -62 17 -86 71 l-20 44 0 -33 c-1 -43 21 -96 50
-116 49 -34 129 -13 129 35 0 34 19 62 34 49 11 -8 15 1 18 47 6 60 3 77 -8
49z"/>
<path d="M235 359 c-5 -7 5 -8 32 -3 51 9 54 14 10 14 -20 0 -39 -5 -42 -11z"/>
<path d="M493 344 c30 -16 44 -14 32 5 -3 6 -18 11 -33 11 l-27 -1 28 -15z"/>
<path d="M352 321 c11 -17 10 -25 -6 -53 l-19 -33 22 19 c24 22 26 76 3 84
-11 3 -11 1 0 -17z"/>
<path d="M270 310 c0 -5 5 -10 10 -10 6 0 10 5 10 10 0 6 -4 10 -10 10 -5 0
-10 -4 -10 -10z"/>
<path d="M460 295 c0 -8 5 -15 10 -15 6 0 10 7 10 15 0 8 -4 15 -10 15 -5 0
-10 -7 -10 -15z"/>
<path d="M3294 263 c-17 -23 -28 -27 -65 -27 -24 0 -56 3 -71 8 -22 6 -28 5
-28 -7 0 -27 49 -57 92 -57 48 0 98 43 98 84 0 32 -1 32 -26 -1z"/>
<path d="M247 269 c7 -7 15 -10 18 -7 3 3 -2 9 -12 12 -14 6 -15 5 -6 -5z"/>
<path d="M320 210 c-9 -6 -10 -10 -3 -10 6 0 15 5 18 10 8 12 4 12 -15 0z"/>
<path d="M300 145 c10 -12 10 -15 -4 -15 -9 0 -16 -4 -16 -9 0 -16 20 -23 33
-12 7 5 22 8 34 5 12 -3 33 2 48 12 25 16 26 19 9 25 -11 4 -41 8 -68 8 -42 1
-47 -1 -36 -14z"/>
<path d="M245 119 c-4 -6 -5 -12 -2 -15 2 -3 7 2 10 11 7 17 1 20 -8 4z"/>
</g>
</svg>
